@startuml DomainModel

skinparam packageStyle rectangle
skinparam linetype ortho
hide methods
hide circle

package User <<aggregate>> {
    class user <<root>>
    class Admin
    class GestorFrota
    class GestorCampus
    class Utente

}

package Building <<aggregate>> {
    class building <<root>>{
        - Code
        - Name
        - MaxFloorDimension
        - MinFloorDimension
        - Description

    }
    }
    package Lift <<aggregate>> {
    class Lift <<root>>{
        - Code
        - BuildingCode
        - Floors
        - Brand
        - Model
        - Serial Number
        - Description
    }
}

package Floor <<aggregate>> {
    class floor <<root>>{
        - Code
        - FloorNumber
        - BuildingCode
        - Description
        - Width
        - Length
    }



}
package Room<<aggregate>>{

class Room <<root>>{
        - Code
        - FloorCode
        - Width
        - Length
        - Description
    }

    enum Type {
            - Office
            - Amphitheater
            - Laboratory
            - Other
    }
    }
package Passageway <<aggregate>>{
    class passageway <<root>>{
        - Code
        - Floor1Code
        - Floor2Code
        - Description
    }
}



class Campus


package Robot <<aggregate>> {

    class robot <<root>>{
        -code
        -name
        -description
    }

    class robotType {
        -code
        -Brand
        -Model
        -Description
    }

  /'class robot <<root>>{
        -SerialNumber
        -Marca
        -Id
        -Nickname
        }
    class Droneisep
    class Robisep
enum Função {
    -Entrega
    -Limpeza
    -vigilância
}'/

}


package Task <<aggregate>> {
class task <<root>>{
    -Code
    -Description
}

class DeliveryTask{
    -pickupRoom
    -deliveryRoom
    -deliveryName
    -deliveryContact
    -pickupName
    -pickupContact
    -confirmationCode
}

class SecurityTask{
    -locations
    -contact
}

}

user "1" <--- "1" Admin : é
user "1" <-- "1" GestorFrota: é
user "1" <--- "1" GestorCampus: é
user "1" <- "1" Utente: é

Admin "1" --> "1..*" user : gere

Utente "1" --> "1..*" task : requests

GestorCampus "1" --> "1..*" Campus : gere

GestorFrota "1" --> "1..*" robot : gere

Campus "1" ---> "5..*" building : constituído por


building "1" --> "1..*" floor : têm
building "1" --> "0..1" Lift : têm

floor "1" --> "1..*" passageway: têm
floor "1" --> "1..*" Room: têm
Room "1" --> "1" Type: é

'robot "1"  <-- "1" Droneisep: é
'robot "1" <-- "1" Robisep: é

robot "1" --> "1" robotType: has
robotType "1" --> "1" task: has

'Robisep "1" --> "1..*" Task: does
'Robisep "1" --> "1" Função : desempenha

task "1" --> "1" DeliveryTask: is
task "1" --> "1" SecurityTask: is


@enduml
